<?xml version="1.0" encoding="UTF-8"?>
<svg id="Layer_1" xmlns="http://www.w3.org/2000/svg" version="1.1" viewBox="0 0 1728 629">
  <!-- Generator: Adobe Illustrator 29.2.1, SVG Export Plug-In . SVG Version: 2.1.0 Build 116)  -->
  <defs>
    <style>
      .st0 {
        fill: #eb4132;
      }

      .st1 {
        fill: #fb0;
      }

      .st2 {
        fill: #fff200;
        opacity: .54;
      }

      .st3 {
        fill: #00ae45;
      }

      .st4 {
        fill: #4285f5;
      }

      .st5 {
        fill: none;
        stroke: #000;
        stroke-miterlimit: 10;
        stroke-width: 10px;
      }
    </style>
  </defs>
  <rect class="st5" x="69.33" y="64.25" width="1579.94" height="512.93" rx="62.15" ry="62.15"/>
  <g>
    <g>
      <path d="M580.03,174.21c-2.12-4.08-5.06-7.16-8.83-9.24-3.77-2.08-8.12-3.12-13.07-3.12-5.42,0-10.24,1.22-14.48,3.65-4.24,2.43-7.56,5.89-9.95,10.36-2.4,4.47-3.59,9.65-3.59,15.54s1.2,11.09,3.59,15.6c2.39,4.51,5.71,7.99,9.95,10.42,4.24,2.43,9.07,3.65,14.48,3.65,7.3,0,13.22-2.04,17.78-6.12,4.55-4.08,7.34-9.61,8.36-16.6h-30.73v-10.71h45.09v10.48c-.86,6.36-3.12,12.21-6.77,17.54-3.65,5.34-8.4,9.6-14.25,12.77-5.85,3.18-12.34,4.77-19.49,4.77-7.69,0-14.72-1.78-21.07-5.36-6.36-3.57-11.4-8.54-15.13-14.89-3.73-6.36-5.59-13.54-5.59-21.55s1.86-15.19,5.59-21.55c3.73-6.36,8.79-11.32,15.19-14.89,6.4-3.57,13.4-5.36,21.02-5.36,8.71,0,16.46,2.14,23.25,6.42,6.79,4.28,11.71,10.34,14.78,18.19h-16.13Z"/>
      <path d="M625.24,161.5v24.02h28.26v10.95h-28.26v25.08h31.79v10.95h-45.21v-81.94h45.21v10.95h-31.79Z"/>
      <path d="M726.37,150.67v10.95h-21.78v70.88h-13.42v-70.88h-21.9v-10.95h57.1Z"/>
      <path d="M783.94,150.67v81.83h-13.42v-81.83h13.42Z"/>
      <path d="M854.47,150.67v10.95h-21.78v70.88h-13.42v-70.88h-21.9v-10.95h57.1Z"/>
      <path d="M914.92,227.96c-6.4-3.57-11.46-8.55-15.19-14.95-3.73-6.4-5.59-13.6-5.59-21.6s1.86-15.19,5.59-21.55c3.73-6.36,8.79-11.32,15.19-14.89,6.4-3.57,13.4-5.36,21.02-5.36s14.74,1.79,21.13,5.36c6.4,3.57,11.44,8.54,15.13,14.89,3.69,6.36,5.53,13.54,5.53,21.55s-1.84,15.21-5.53,21.6c-3.69,6.4-8.73,11.38-15.13,14.95-6.4,3.57-13.44,5.36-21.13,5.36s-14.62-1.78-21.02-5.36ZM950.42,217.95c4.24-2.47,7.55-6,9.95-10.6,2.39-4.59,3.59-9.91,3.59-15.95s-1.2-11.34-3.59-15.89c-2.4-4.55-5.71-8.04-9.95-10.48-4.24-2.43-9.07-3.65-14.48-3.65s-10.24,1.22-14.48,3.65c-4.24,2.43-7.56,5.93-9.95,10.48-2.39,4.55-3.59,9.85-3.59,15.89s1.2,11.36,3.59,15.95c2.39,4.59,5.71,8.12,9.95,10.6,4.24,2.47,9.07,3.71,14.48,3.71s10.24-1.24,14.48-3.71Z"/>
      <path d="M1058.15,232.49h-13.42l-40.38-61.11v61.11h-13.42v-81.94h13.42l40.38,60.99v-60.99h13.42v81.94Z"/>
    </g>
    <g>
      <path d="M608.51,359.15c-2.79-5.11-6.63-9.01-11.51-11.68-4.88-2.67-10.58-4.01-17.09-4.01-7.21,0-13.6,1.63-19.18,4.88-5.58,3.25-9.94,7.91-13.08,13.95-3.14,6.05-4.71,13.02-4.71,20.92s1.6,15.23,4.79,21.27c3.2,6.05,7.64,10.7,13.34,13.95,5.69,3.26,12.32,4.88,19.88,4.88,9.3,0,16.91-2.47,22.84-7.41,5.93-4.94,9.82-11.83,11.68-20.66h-41.84v-18.65h65.9v21.27c-1.63,8.49-5.12,16.33-10.46,23.54-5.35,7.21-12.23,12.99-20.66,17.35-8.43,4.36-17.87,6.54-28.33,6.54-11.74,0-22.35-2.64-31.82-7.93-9.47-5.29-16.91-12.64-22.32-22.06-5.4-9.42-8.11-20.11-8.11-32.08s2.7-22.69,8.11-32.17c5.41-9.47,12.84-16.85,22.32-22.14,9.47-5.29,20.02-7.93,31.64-7.93,13.71,0,25.63,3.34,35.74,10.02,10.11,6.69,17.09,16.07,20.92,28.16h-28.07Z"/>
      <path d="M675.45,439.61c-7.44-4.12-13.28-9.97-17.52-17.52-4.24-7.55-6.36-16.27-6.36-26.15s2.18-18.6,6.54-26.15c4.36-7.55,10.31-13.4,17.87-17.52,7.55-4.12,15.98-6.19,25.28-6.19s17.72,2.06,25.28,6.19c7.55,4.13,13.51,9.97,17.87,17.52,4.36,7.56,6.54,16.27,6.54,26.15s-2.24,18.6-6.71,26.15c-4.48,7.56-10.52,13.4-18.13,17.52-7.61,4.13-16.13,6.19-25.54,6.19s-17.67-2.06-25.11-6.19ZM713.03,421.3c3.89-2.15,7-5.37,9.33-9.68,2.32-4.3,3.49-9.53,3.49-15.69,0-9.18-2.41-16.24-7.24-21.18-4.82-4.94-10.72-7.41-17.7-7.41s-12.81,2.47-17.52,7.41c-4.71,4.94-7.06,12-7.06,21.18s2.29,16.24,6.89,21.18c4.59,4.94,10.37,7.41,17.35,7.41,4.42,0,8.57-1.07,12.47-3.23Z"/>
      <path d="M786.69,439.61c-7.44-4.12-13.28-9.97-17.52-17.52-4.24-7.55-6.36-16.27-6.36-26.15s2.18-18.6,6.54-26.15c4.36-7.55,10.31-13.4,17.87-17.52,7.55-4.12,15.98-6.19,25.28-6.19s17.72,2.06,25.28,6.19c7.55,4.13,13.51,9.97,17.87,17.52,4.36,7.56,6.54,16.27,6.54,26.15s-2.24,18.6-6.71,26.15c-4.48,7.56-10.52,13.4-18.13,17.52-7.61,4.13-16.13,6.19-25.54,6.19s-17.67-2.06-25.11-6.19ZM824.26,421.3c3.89-2.15,7-5.37,9.33-9.68,2.32-4.3,3.49-9.53,3.49-15.69,0-9.18-2.41-16.24-7.24-21.18-4.82-4.94-10.72-7.41-17.7-7.41s-12.81,2.47-17.52,7.41c-4.71,4.94-7.06,12-7.06,21.18s2.29,16.24,6.89,21.18c4.59,4.94,10.37,7.41,17.35,7.41,4.42,0,8.57-1.07,12.47-3.23Z"/>
      <path d="M936.97,350.34c5.46,2.85,9.76,6.54,12.9,11.07v-13.77h24.58v97.29c0,8.95-1.8,16.94-5.4,23.97-3.6,7.03-9.01,12.61-16.21,16.74-7.21,4.12-15.93,6.19-26.15,6.19-13.72,0-24.96-3.2-33.74-9.59-8.78-6.39-13.75-15.11-14.91-26.15h24.23c1.28,4.42,4.04,7.93,8.28,10.55,4.24,2.62,9.39,3.92,15.43,3.92,7.09,0,12.84-2.12,17.26-6.36,4.42-4.24,6.62-10.67,6.62-19.27v-14.99c-3.14,4.53-7.47,8.31-12.99,11.33-5.52,3.02-11.83,4.53-18.92,4.53-8.14,0-15.58-2.09-22.32-6.28-6.74-4.18-12.06-10.08-15.95-17.7-3.9-7.61-5.84-16.36-5.84-26.24s1.95-18.42,5.84-25.98c3.89-7.55,9.18-13.36,15.87-17.43,6.68-4.07,14.15-6.1,22.4-6.1,7.21,0,13.54,1.42,19,4.27ZM946.39,380.68c-2.33-4.24-5.47-7.5-9.42-9.76-3.95-2.27-8.19-3.4-12.73-3.4s-8.72,1.11-12.55,3.31c-3.84,2.21-6.95,5.43-9.33,9.68-2.38,4.24-3.57,9.27-3.57,15.08s1.19,10.9,3.57,15.26c2.38,4.36,5.52,7.7,9.41,10.03,3.89,2.33,8.05,3.49,12.47,3.49s8.77-1.13,12.73-3.4c3.95-2.27,7.09-5.52,9.42-9.76,2.32-4.24,3.49-9.33,3.49-15.26s-1.16-11.01-3.49-15.26Z"/>
      <path d="M1022.75,315.21v129.02h-24.41v-129.02h24.41Z"/>
      <path d="M1135.9,403.26h-70.61c.58,6.97,3.02,12.44,7.32,16.39,4.3,3.95,9.59,5.93,15.87,5.93,9.07,0,15.52-3.89,19.35-11.68h26.33c-2.79,9.3-8.14,16.94-16.04,22.93-7.91,5.99-17.61,8.98-29.12,8.98-9.3,0-17.64-2.06-25.02-6.19-7.38-4.12-13.14-9.97-17.26-17.52-4.13-7.55-6.19-16.27-6.19-26.15s2.03-18.77,6.1-26.33c4.07-7.55,9.76-13.36,17.09-17.43,7.32-4.07,15.75-6.1,25.28-6.1s17.4,1.98,24.67,5.93c7.26,3.95,12.9,9.56,16.91,16.82,4.01,7.27,6.02,15.6,6.02,25.02,0,3.49-.23,6.63-.7,9.41ZM1111.32,386.87c-.12-6.28-2.38-11.3-6.8-15.08-4.42-3.78-9.82-5.67-16.21-5.67-6.05,0-11.13,1.83-15.26,5.49-4.13,3.66-6.65,8.75-7.58,15.26h45.85Z"/>
      <path d="M1280,378.5c-3.08,5.7-7.91,10.29-14.47,13.77-6.57,3.49-14.85,5.23-24.84,5.23h-20.4v46.73h-24.41v-121.7h44.81c9.41,0,17.43,1.63,24.06,4.88,6.62,3.26,11.59,7.73,14.91,13.42,3.31,5.7,4.97,12.15,4.97,19.35,0,6.51-1.54,12.61-4.62,18.31ZM1254.63,373.18c3.25-3.08,4.88-7.41,4.88-12.99,0-11.86-6.63-17.78-19.88-17.78h-19.35v35.39h19.35c6.74,0,11.74-1.54,14.99-4.62Z"/>
      <path d="M1326.29,315.21v129.02h-24.41v-129.02h24.41Z"/>
      <path d="M1349.91,369.61c3.89-7.55,9.18-13.36,15.87-17.43,6.68-4.07,14.15-6.1,22.4-6.1,7.21,0,13.51,1.45,18.92,4.36,5.4,2.91,9.73,6.57,12.99,10.98v-13.77h24.58v96.59h-24.58v-14.12c-3.14,4.53-7.47,8.28-12.99,11.25-5.52,2.96-11.89,4.45-19.09,4.45-8.14,0-15.55-2.09-22.23-6.28-6.69-4.18-11.97-10.08-15.87-17.7-3.9-7.61-5.84-16.36-5.84-26.24s1.95-18.42,5.84-25.98ZM1416.6,380.68c-2.33-4.24-5.47-7.5-9.42-9.76-3.95-2.27-8.19-3.4-12.73-3.4s-8.72,1.11-12.55,3.31c-3.84,2.21-6.95,5.43-9.33,9.68-2.38,4.24-3.57,9.27-3.57,15.08s1.19,10.9,3.57,15.26c2.38,4.36,5.52,7.7,9.41,10.03,3.89,2.33,8.05,3.49,12.47,3.49s8.77-1.13,12.73-3.4c3.95-2.27,7.09-5.52,9.42-9.76,2.32-4.24,3.49-9.33,3.49-15.26s-1.16-11.01-3.49-15.26Z"/>
      <path d="M1560.96,347.64l-59.8,142.27h-25.98l20.92-48.12-38.71-94.15h27.37l24.93,67.47,25.28-67.47h25.98Z"/>
    </g>
  </g>
  <g>
    <path class="st4" d="M172.61,165.57c-4.51,5.37-7.31,12.34-7.31,20.28v238.85c0,6.29,1.76,11.97,4.73,16.73l126.04-138.64-123.46-137.22Z"/>
    <path class="st3" d="M353.48,239.65l-140.67-81.22c-14.23-8.22-30.86-3.97-40.19,7.14l123.46,137.22,57.41-63.15Z"/>
    <path class="st3" d="M353.48,239.65l-140.67-81.22c-14.23-8.22-30.86-3.97-40.19,7.14l123.46,137.22,57.41-63.15Z"/>
    <path class="st3" d="M212.8,452.13l143.22-82.69-59.96-66.64-126.04,138.64c8.54,13.68,27.11,19.73,42.77,10.69Z"/>
    <path class="st0" d="M212.8,452.13l143.22-82.69-59.96-66.64-126.04,138.64c8.54,13.68,27.11,19.73,42.77,10.69Z"/>
    <path class="st3" d="M356.03,369.44l63.63-36.74c21.11-12.19,21.11-42.66,0-54.85l-66.18-38.21-57.41,63.15,59.96,66.64Z"/>
    <path class="st2" d="M356.03,369.44l63.63-36.74c21.11-12.19,21.11-42.66,0-54.85l-66.18-38.21-57.41,63.15,59.96,66.64Z"/>
    <path class="st1" d="M356.03,369.44l63.63-36.74c21.11-12.19,21.11-42.66,0-54.85l-66.18-38.21-57.41,63.15,59.96,66.64Z"/>
  </g>
</svg>