<?xml version="1.0" encoding="UTF-8"?>
<svg id="OBJECTS" xmlns="http://www.w3.org/2000/svg" version="1.1" viewBox="0 0 333.01 353.72">
  <!-- Generator: Adobe Illustrator 29.2.1, SVG Export Plug-In . SVG Version: 2.1.0 Build 116)  -->
  <defs>
    <style>
      .st0 {
        fill: #fff;
      }
    </style>
  </defs>
  <path class="st0" d="M166.5,44.61c43.07,0,48.18.16,65.19.94,15.73.72,24.27,3.35,29.95,5.55,7.01,2.59,13.35,6.71,18.55,12.07,5.36,5.2,9.48,11.54,12.07,18.55,2.21,5.68,4.84,14.23,5.55,29.95.78,17.01.94,22.11.94,65.19s-.16,48.18-.94,65.19c-.72,15.73-3.35,24.27-5.55,29.95-5.43,14.07-16.55,25.19-30.62,30.62-5.68,2.21-14.23,4.84-29.95,5.55-17.01.78-22.11.94-65.19.94s-48.18-.16-65.19-.94c-15.73-.72-24.27-3.35-29.95-5.55-7.01-2.59-13.35-6.71-18.55-12.07-5.36-5.2-9.48-11.54-12.07-18.55-2.21-5.68-4.84-14.23-5.55-29.95-.78-17.01-.94-22.11-.94-65.19s.16-48.18.94-65.19c.72-15.73,3.35-24.27,5.55-29.95,2.59-7.01,6.71-13.35,12.07-18.55,5.2-5.36,11.54-9.48,18.55-12.07,5.68-2.21,14.23-4.84,29.95-5.55,17.01-.78,22.11-.94,65.19-.94M166.5,15.54c-43.81,0-49.31.19-66.51.97-17.17.78-28.9,3.51-39.16,7.5-10.76,4.05-20.51,10.4-28.57,18.61-8.21,8.06-14.56,17.81-18.61,28.57-3.98,10.26-6.71,21.99-7.49,39.16-.79,17.2-.97,22.7-.97,66.51s.19,49.31.97,66.51c.78,17.17,3.51,28.9,7.5,39.16,4.05,10.76,10.4,20.52,18.61,28.57,8.06,8.21,17.81,14.56,28.57,18.61,10.26,3.99,21.99,6.71,39.16,7.5,17.21.79,22.7.97,66.51.97s49.31-.19,66.51-.97c17.17-.78,28.9-3.51,39.16-7.5,21.67-8.38,38.8-25.51,47.18-47.18,3.99-10.26,6.71-21.99,7.5-39.16.79-17.21.97-22.7.97-66.51s-.19-49.31-.97-66.51c-.78-17.17-3.51-28.9-7.5-39.16-4.05-10.76-10.4-20.52-18.61-28.57-8.06-8.21-17.81-14.56-28.57-18.61-10.26-3.98-21.99-6.71-39.16-7.49-17.2-.79-22.7-.97-66.51-.97h0Z"/>
  <path class="st0" d="M166.5,94.02c-45.75,0-82.84,37.09-82.84,82.84s37.09,82.84,82.84,82.84,82.84-37.09,82.84-82.84h0c0-45.75-37.09-82.84-82.84-82.84ZM166.5,230.64c-29.7,0-53.77-24.08-53.77-53.77s24.08-53.77,53.77-53.77c29.7,0,53.77,24.08,53.77,53.77,0,29.7-24.08,53.77-53.77,53.77Z"/>
  <path class="st0" d="M252.62,71.39c10.69,0,19.36,8.67,19.36,19.36s-8.67,19.36-19.36,19.36-19.36-8.67-19.36-19.36,8.67-19.36,19.36-19.36Z"/>
</svg>