<?xml version="1.0" encoding="UTF-8"?>
<svg id="Layer_1" xmlns="http://www.w3.org/2000/svg" version="1.1" viewBox="0 0 1728 629">
  <!-- Generator: Adobe Illustrator 29.2.1, SVG Export Plug-In . SVG Version: 2.1.0 Build 116)  -->
  <defs>
    <style>
      .st0 {
        fill: none;
        stroke: #000;
        stroke-miterlimit: 10;
        stroke-width: 10px;
      }
    </style>
  </defs>
  <rect class="st0" x="68.5" y="61.07" width="1579.94" height="512.93" rx="62.15" ry="62.15"/>
  <g>
    <g>
      <path d="M569.61,155.39c6.55,3.34,11.62,8.12,15.19,14.36,3.57,6.24,5.36,13.52,5.36,21.84s-1.79,15.54-5.36,21.66c-3.57,6.12-8.64,10.81-15.19,14.07-6.55,3.26-14.19,4.89-22.9,4.89h-26.73v-81.83h26.73c8.71,0,16.35,1.67,22.9,5ZM568.72,213.49c5.1-5.18,7.65-12.48,7.65-21.9s-2.55-16.91-7.65-22.25c-5.1-5.34-12.44-8.01-22.02-8.01h-13.3v59.93h13.3c9.58,0,16.91-2.59,22.02-7.77Z"/>
      <path d="M614.99,229.09c-4.94-2.79-8.83-6.71-11.66-11.77-2.83-5.06-4.24-10.93-4.24-17.6s1.45-12.44,4.36-17.54c2.9-5.1,6.87-9.03,11.89-11.77,5.02-2.75,10.64-4.12,16.84-4.12s11.81,1.37,16.84,4.12c5.02,2.75,8.99,6.67,11.89,11.77,2.9,5.1,4.36,10.95,4.36,17.54s-1.49,12.44-4.47,17.54c-2.98,5.1-7.05,9.05-12.19,11.83-5.14,2.79-10.81,4.18-17.01,4.18s-11.66-1.39-16.6-4.18ZM641.31,219.14c3.02-1.65,5.47-4.12,7.36-7.42,1.88-3.3,2.83-7.3,2.83-12.01s-.9-8.69-2.71-11.95c-1.81-3.26-4.2-5.71-7.18-7.36-2.98-1.65-6.2-2.47-9.65-2.47s-6.65.82-9.6,2.47c-2.94,1.65-5.28,4.1-7.01,7.36-1.73,3.26-2.59,7.24-2.59,11.95,0,6.99,1.78,12.38,5.36,16.19,3.57,3.81,8.06,5.71,13.48,5.71,3.45,0,6.69-.82,9.71-2.47Z"/>
      <path d="M765.69,167.34l-20.13,64.87h-14.13l-13.07-47.92-13.07,47.92h-14.13l-20.25-64.87h13.66l13.54,52.16,13.77-52.16h14.01l13.19,51.92,13.42-51.92h13.19Z"/>
      <path d="M822.15,169.46c4.04,2.12,7.2,5.26,9.48,9.42,2.28,4.16,3.41,9.18,3.41,15.07v38.26h-13.3v-36.26c0-5.81-1.45-10.26-4.36-13.36-2.9-3.1-6.87-4.65-11.89-4.65s-9.01,1.55-11.95,4.65c-2.94,3.1-4.42,7.56-4.42,13.36v36.26h-13.42v-64.87h13.42v7.42c2.2-2.67,5-4.75,8.42-6.24,3.41-1.49,7.04-2.24,10.89-2.24,5.1,0,9.67,1.06,13.72,3.18Z"/>
      <path d="M865.53,145.09v87.12h-13.42v-87.12h13.42Z"/>
      <path d="M894.73,229.09c-4.94-2.79-8.83-6.71-11.66-11.77-2.83-5.06-4.24-10.93-4.24-17.6s1.45-12.44,4.36-17.54c2.9-5.1,6.87-9.03,11.89-11.77,5.02-2.75,10.63-4.12,16.84-4.12s11.81,1.37,16.84,4.12c5.02,2.75,8.99,6.67,11.89,11.77,2.9,5.1,4.36,10.95,4.36,17.54s-1.49,12.44-4.47,17.54c-2.98,5.1-7.05,9.05-12.19,11.83-5.14,2.79-10.81,4.18-17.01,4.18s-11.66-1.39-16.6-4.18ZM921.04,219.14c3.02-1.65,5.47-4.12,7.36-7.42,1.88-3.3,2.83-7.3,2.83-12.01s-.9-8.69-2.71-11.95c-1.81-3.26-4.2-5.71-7.18-7.36-2.98-1.65-6.2-2.47-9.65-2.47s-6.65.82-9.6,2.47-5.28,4.1-7,7.36c-1.73,3.26-2.59,7.24-2.59,11.95,0,6.99,1.78,12.38,5.36,16.19,3.57,3.81,8.07,5.71,13.48,5.71,3.45,0,6.69-.82,9.71-2.47Z"/>
      <path d="M957.89,182.17c2.71-5.02,6.4-8.93,11.07-11.72,4.67-2.79,9.83-4.18,15.48-4.18,5.1,0,9.56,1,13.36,3,3.81,2,6.85,4.49,9.12,7.48v-9.42h13.54v64.87h-13.54v-9.65c-2.28,3.06-5.38,5.61-9.3,7.65-3.93,2.04-8.4,3.06-13.42,3.06-5.57,0-10.68-1.43-15.31-4.3-4.63-2.86-8.3-6.87-11.01-12.01-2.71-5.14-4.06-10.97-4.06-17.48s1.35-12.28,4.06-17.31ZM1004.16,188.06c-1.84-3.3-4.26-5.81-7.24-7.53-2.98-1.73-6.2-2.59-9.65-2.59s-6.67.84-9.65,2.53c-2.98,1.69-5.4,4.16-7.24,7.42-1.85,3.26-2.77,7.12-2.77,11.6s.92,8.4,2.77,11.77c1.84,3.38,4.28,5.95,7.3,7.71,3.02,1.77,6.22,2.65,9.6,2.65s6.67-.86,9.65-2.59c2.98-1.73,5.4-4.26,7.24-7.59,1.84-3.34,2.77-7.24,2.77-11.71s-.92-8.36-2.77-11.66Z"/>
      <path d="M1037.72,182.17c2.71-5.02,6.4-8.93,11.07-11.72,4.67-2.79,9.87-4.18,15.6-4.18,4.24,0,8.42.92,12.54,2.77,4.12,1.85,7.4,4.3,9.83,7.36v-31.32h13.54v87.12h-13.54v-9.77c-2.2,3.14-5.24,5.73-9.12,7.77-3.89,2.04-8.34,3.06-13.36,3.06-5.65,0-10.81-1.43-15.48-4.3-4.67-2.86-8.36-6.87-11.07-12.01-2.71-5.14-4.06-10.97-4.06-17.48s1.35-12.28,4.06-17.31ZM1083.99,188.06c-1.84-3.3-4.26-5.81-7.24-7.53-2.98-1.73-6.2-2.59-9.65-2.59s-6.67.84-9.65,2.53c-2.98,1.69-5.4,4.16-7.24,7.42-1.85,3.26-2.77,7.12-2.77,11.6s.92,8.4,2.77,11.77c1.84,3.38,4.28,5.95,7.3,7.71,3.02,1.77,6.22,2.65,9.6,2.65s6.67-.86,9.65-2.59c2.98-1.73,5.4-4.26,7.24-7.59,1.84-3.34,2.77-7.24,2.77-11.71s-.92-8.36-2.77-11.66Z"/>
      <path d="M1160.1,229.09c-4.94-2.79-8.83-6.71-11.66-11.77-2.83-5.06-4.24-10.93-4.24-17.6s1.45-12.44,4.36-17.54c2.9-5.1,6.87-9.03,11.89-11.77,5.02-2.75,10.63-4.12,16.84-4.12s11.81,1.37,16.84,4.12c5.02,2.75,8.99,6.67,11.89,11.77,2.9,5.1,4.36,10.95,4.36,17.54s-1.49,12.44-4.47,17.54c-2.98,5.1-7.05,9.05-12.19,11.83-5.14,2.79-10.81,4.18-17.01,4.18s-11.66-1.39-16.6-4.18ZM1186.42,219.14c3.02-1.65,5.47-4.12,7.36-7.42,1.88-3.3,2.83-7.3,2.83-12.01s-.9-8.69-2.71-11.95c-1.81-3.26-4.2-5.71-7.18-7.36-2.98-1.65-6.2-2.47-9.65-2.47s-6.65.82-9.6,2.47-5.28,4.1-7,7.36c-1.73,3.26-2.59,7.24-2.59,11.95,0,6.99,1.78,12.38,5.36,16.19,3.57,3.81,8.07,5.71,13.48,5.71,3.45,0,6.69-.82,9.71-2.47Z"/>
      <path d="M1270.13,169.46c4.04,2.12,7.2,5.26,9.48,9.42,2.28,4.16,3.41,9.18,3.41,15.07v38.26h-13.3v-36.26c0-5.81-1.45-10.26-4.36-13.36-2.9-3.1-6.87-4.65-11.89-4.65s-9.01,1.55-11.95,4.65c-2.94,3.1-4.42,7.56-4.42,13.36v36.26h-13.42v-64.87h13.42v7.42c2.2-2.67,5-4.75,8.42-6.24,3.41-1.49,7.04-2.24,10.89-2.24,5.1,0,9.67,1.06,13.72,3.18Z"/>
      <path d="M1346.36,178.29v35.91c0,2.43.57,4.18,1.71,5.24,1.14,1.06,3.08,1.59,5.83,1.59h8.24v11.19h-10.6c-6.05,0-10.68-1.41-13.89-4.24-3.22-2.83-4.83-7.42-4.83-13.77v-35.91h-7.65v-10.95h7.65v-16.13h13.54v16.13h15.78v10.95h-15.78Z"/>
      <path d="M1421.3,169.46c3.89,2.12,6.95,5.26,9.18,9.42,2.24,4.16,3.36,9.18,3.36,15.07v38.26h-13.3v-36.26c0-5.81-1.45-10.26-4.36-13.36-2.9-3.1-6.87-4.65-11.89-4.65s-9.01,1.55-11.95,4.65c-2.94,3.1-4.42,7.56-4.42,13.36v36.26h-13.42v-87.12h13.42v29.79c2.28-2.75,5.16-4.87,8.65-6.36,3.49-1.49,7.32-2.24,11.48-2.24,4.94,0,9.36,1.06,13.25,3.18Z"/>
      <path d="M1509.89,204.78h-49.57c.39,5.18,2.31,9.34,5.77,12.48,3.45,3.14,7.69,4.71,12.72,4.71,7.22,0,12.32-3.02,15.31-9.07h14.48c-1.96,5.97-5.51,10.85-10.65,14.66-5.14,3.81-11.52,5.71-19.13,5.71-6.2,0-11.76-1.39-16.66-4.18-4.91-2.79-8.75-6.71-11.54-11.77-2.79-5.06-4.18-10.93-4.18-17.6s1.35-12.54,4.06-17.6c2.71-5.06,6.51-8.97,11.42-11.71,4.9-2.75,10.54-4.12,16.9-4.12s11.58,1.34,16.37,4c4.79,2.67,8.52,6.42,11.18,11.24,2.67,4.83,4,10.38,4,16.66,0,2.43-.16,4.63-.47,6.59ZM1496.35,193.95c-.08-4.95-1.84-8.91-5.3-11.89-3.45-2.98-7.73-4.47-12.83-4.47-4.63,0-8.59,1.47-11.89,4.42-3.3,2.94-5.26,6.93-5.89,11.95h35.91Z"/>
    </g>
    <g>
      <path d="M597.57,420.76h-48.47l-8.02,23.19h-25.63l43.76-121.87h28.42l43.76,121.87h-25.8l-8.02-23.19ZM590.94,401.24l-17.61-50.91-17.61,50.91h35.22Z"/>
      <path d="M685.18,350.24c5.52-2.96,11.83-4.45,18.92-4.45,8.25,0,15.72,2.03,22.4,6.1,6.68,4.07,11.97,9.85,15.87,17.35,3.89,7.5,5.84,16.19,5.84,26.07s-1.95,18.63-5.84,26.24c-3.9,7.61-9.18,13.51-15.87,17.7-6.68,4.18-14.15,6.28-22.4,6.28-7.09,0-13.34-1.45-18.74-4.36-5.41-2.9-9.79-6.56-13.16-10.98v59.8h-24.41v-142.62h24.41v13.95c3.14-4.42,7.47-8.11,12.99-11.07ZM719.7,380.23c-2.38-4.24-5.52-7.47-9.41-9.68-3.9-2.21-8.11-3.31-12.64-3.31s-8.57,1.13-12.47,3.4c-3.9,2.27-7.03,5.55-9.41,9.85-2.38,4.3-3.57,9.36-3.57,15.17s1.19,10.87,3.57,15.17c2.38,4.3,5.52,7.58,9.41,9.85,3.89,2.27,8.05,3.4,12.47,3.4s8.74-1.16,12.64-3.49c3.89-2.32,7.03-5.64,9.41-9.94,2.38-4.3,3.57-9.42,3.57-15.34s-1.19-10.84-3.57-15.08Z"/>
      <path d="M803.38,350.24c5.52-2.96,11.83-4.45,18.92-4.45,8.25,0,15.72,2.03,22.4,6.1,6.68,4.07,11.97,9.85,15.87,17.35,3.89,7.5,5.84,16.19,5.84,26.07s-1.95,18.63-5.84,26.24c-3.9,7.61-9.18,13.51-15.87,17.7-6.69,4.18-14.15,6.28-22.4,6.28-7.09,0-13.34-1.45-18.74-4.36-5.41-2.9-9.79-6.56-13.16-10.98v59.8h-24.41v-142.62h24.41v13.95c3.14-4.42,7.47-8.11,12.99-11.07ZM837.91,380.23c-2.38-4.24-5.52-7.47-9.42-9.68-3.9-2.21-8.11-3.31-12.64-3.31s-8.57,1.13-12.47,3.4c-3.9,2.27-7.03,5.55-9.41,9.85-2.38,4.3-3.57,9.36-3.57,15.17s1.19,10.87,3.57,15.17c2.38,4.3,5.52,7.58,9.41,9.85,3.89,2.27,8.05,3.4,12.47,3.4s8.74-1.16,12.64-3.49c3.89-2.32,7.03-5.64,9.42-9.94,2.38-4.3,3.57-9.42,3.57-15.34s-1.19-10.84-3.57-15.08Z"/>
      <path d="M944.78,440.81c-6.8-2.9-12.18-7.09-16.13-12.55-3.95-5.46-5.99-11.91-6.1-19.35h26.15c.35,5,2.12,8.95,5.32,11.86,3.2,2.91,7.58,4.36,13.16,4.36s10.17-1.36,13.42-4.1c3.25-2.73,4.88-6.3,4.88-10.72,0-3.6-1.11-6.57-3.31-8.89-2.21-2.32-4.97-4.15-8.28-5.49-3.31-1.33-7.88-2.82-13.69-4.45-7.91-2.32-14.33-4.62-19.27-6.89-4.94-2.27-9.18-5.69-12.73-10.29-3.55-4.59-5.32-10.72-5.32-18.39,0-7.21,1.8-13.48,5.4-18.83,3.6-5.35,8.66-9.44,15.17-12.29,6.51-2.85,13.95-4.27,22.32-4.27,12.55,0,22.75,3.05,30.6,9.15,7.85,6.1,12.17,14.62,12.99,25.54h-26.85c-.23-4.18-2-7.64-5.32-10.37-3.31-2.73-7.7-4.1-13.16-4.1-4.77,0-8.57,1.22-11.42,3.66-2.85,2.44-4.27,5.99-4.27,10.64,0,3.26,1.07,5.96,3.23,8.11,2.15,2.15,4.82,3.9,8.02,5.23,3.2,1.34,7.7,2.88,13.51,4.62,7.9,2.33,14.35,4.65,19.35,6.97,5,2.33,9.3,5.81,12.9,10.46,3.6,4.65,5.4,10.75,5.4,18.31,0,6.51-1.69,12.55-5.06,18.13-3.37,5.58-8.31,10.02-14.82,13.34-6.51,3.31-14.24,4.97-23.19,4.97-8.49,0-16.13-1.45-22.93-4.36Z"/>
      <path d="M1060.28,367.41v46.73c0,3.25.78,5.61,2.35,7.06,1.57,1.45,4.21,2.18,7.93,2.18h11.33v20.57h-15.34c-20.57,0-30.86-10-30.86-29.99v-46.55h-11.51v-20.05h11.51v-23.89h24.58v23.89h21.62v20.05h-21.62Z"/>
      <path d="M1117.29,439.33c-7.44-4.12-13.28-9.97-17.52-17.52-4.24-7.55-6.36-16.27-6.36-26.15s2.18-18.6,6.54-26.15c4.36-7.55,10.31-13.39,17.87-17.52,7.55-4.12,15.98-6.19,25.28-6.19s17.72,2.06,25.28,6.19c7.55,4.13,13.51,9.97,17.87,17.52,4.36,7.56,6.54,16.27,6.54,26.15s-2.24,18.6-6.71,26.15c-4.48,7.56-10.52,13.4-18.13,17.52-7.61,4.13-16.13,6.19-25.54,6.19s-17.67-2.06-25.11-6.19ZM1154.87,421.02c3.89-2.15,7-5.38,9.33-9.68,2.32-4.3,3.49-9.53,3.49-15.69,0-9.18-2.41-16.24-7.24-21.18-4.82-4.94-10.72-7.41-17.7-7.41s-12.82,2.47-17.52,7.41c-4.71,4.94-7.06,12-7.06,21.18s2.29,16.24,6.89,21.18c4.59,4.94,10.37,7.41,17.35,7.41,4.42,0,8.57-1.07,12.47-3.23Z"/>
      <path d="M1247.44,350.33c5.06-2.9,10.84-4.36,17.35-4.36v25.63h-6.45c-7.67,0-13.45,1.8-17.35,5.4-3.9,3.6-5.84,9.88-5.84,18.83v48.12h-24.41v-96.59h24.41v14.99c3.14-5.11,7.24-9.12,12.29-12.03Z"/>
      <path d="M1370.27,402.98h-70.61c.58,6.97,3.02,12.44,7.32,16.39,4.3,3.95,9.59,5.93,15.87,5.93,9.07,0,15.52-3.89,19.35-11.68h26.33c-2.79,9.3-8.14,16.94-16.04,22.93-7.91,5.99-17.61,8.98-29.12,8.98-9.3,0-17.64-2.06-25.02-6.19-7.38-4.12-13.14-9.97-17.26-17.52-4.13-7.55-6.19-16.27-6.19-26.15s2.03-18.77,6.1-26.33c4.07-7.55,9.76-13.36,17.09-17.43,7.32-4.07,15.75-6.1,25.28-6.1s17.4,1.98,24.67,5.93c7.26,3.95,12.9,9.56,16.91,16.82,4.01,7.27,6.02,15.6,6.02,25.02,0,3.49-.23,6.62-.7,9.41ZM1345.69,386.59c-.12-6.28-2.38-11.3-6.8-15.08-4.42-3.78-9.82-5.67-16.21-5.67-6.05,0-11.13,1.83-15.26,5.49-4.13,3.66-6.65,8.75-7.58,15.26h45.85Z"/>
    </g>
  </g>
  <g>
    <path d="M295.65,241.41s-3.03-21.74,14.86-42.38c19.63-22.65,40.73-20.64,40.73-20.64,0,0,1.1,23.12-11.83,40.18-23.37,30.83-43.76,22.84-43.76,22.84Z"/>
    <path d="M295.38,258.19c16.39-.66,32.2-14.86,62.19-12.11,24.73,2.27,45.04,25.13,43.21,26.97-1.93,1.93-30.27,20.91-29.45,54.21,1.08,43.44,37.15,55.59,37.15,55.59,0,0-15.14,53.66-52.84,72.65-11.12,5.6-42.59-11.19-55.04-11.28-13.24-.1-40.52,15.92-53.11,11.83-32.55-10.57-61.66-70.19-65.22-118.61-4.13-56.14,29.91-83.88,52.84-88.61,34.67-7.16,40.48,10.15,60.27,9.36Z"/>
  </g>
</svg>