<?xml version="1.0" encoding="UTF-8"?>
<svg id="OBJECTS" xmlns="http://www.w3.org/2000/svg" version="1.1" viewBox="0 0 333.01 353.72">
  <!-- Generator: Adobe Illustrator 29.2.1, SVG Export Plug-In . SVG Version: 2.1.0 Build 116)  -->
  <defs>
    <style>
      .st0 {
        fill: #fff;
      }
    </style>
  </defs>
  <path class="st0" d="M245.69,96.83c-1.89-.98-3.73-2.05-5.51-3.2-5.18-3.42-9.93-7.46-14.14-12.01-10.55-12.07-14.49-24.31-15.94-32.88h.06c-1.21-7.11-.71-11.72-.64-11.72h-48.04v185.74c0,2.49,0,4.96-.1,7.39,0,.3-.03.58-.05.91,0,.13,0,.27-.03.41v.1c-1.03,13.53-8.72,25.67-20.52,32.37-6.06,3.45-12.91,5.25-19.87,5.24-22.38,0-40.52-18.25-40.52-40.79s18.14-40.79,40.52-40.79c4.24,0,8.45.66,12.47,1.98l.06-48.91c-24.72-3.19-49.65,4.1-68.76,20.11-8.28,7.19-15.24,15.78-20.57,25.36-2.03,3.5-9.68,17.54-10.6,40.34-.58,12.94,3.3,26.35,5.16,31.89v.12c1.17,3.26,5.68,14.4,13.04,23.78,5.93,7.53,12.95,14.14,20.81,19.63v-.12l.12.12c23.25,15.8,49.04,14.76,49.04,14.76,4.46-.18,19.41,0,36.39-8.05,18.83-8.92,29.55-22.21,29.55-22.21,6.85-7.94,12.3-16.99,16.11-26.76,4.35-11.43,5.8-25.13,5.8-30.61v-98.54c.58.35,8.34,5.48,8.34,5.48,0,0,11.18,7.17,28.63,11.83,12.52,3.32,29.38,4.02,29.38,4.02v-47.69c-5.91.64-17.91-1.22-30.19-7.35Z"/>
</svg>